<svg width="14" height="14" viewBox="0 0 14 14">
<path d="M7.00014 1.16671C7.77393 1.16924 8.53954 1.32522 9.25266 1.62561C9.96578 1.92599 10.6122 2.36482 11.1546 2.91671H9.33347C9.17876 2.91671 9.03039 2.97816 8.92099 3.08756C8.8116 3.19696 8.75014 3.34533 8.75014 3.50004C8.75014 3.65475 8.8116 3.80312 8.92099 3.91252C9.03039 4.02191 9.17876 4.08337 9.33347 4.08337H11.7502C12.0375 4.08322 12.3129 3.96904 12.516 3.76593C12.7191 3.56281 12.8333 3.28737 12.8335 3.00012V0.583372C12.8335 0.428663 12.772 0.28029 12.6626 0.170893C12.5532 0.0614971 12.4048 3.89058e-05 12.2501 3.89058e-05C12.0954 3.89058e-05 11.9471 0.0614971 11.8377 0.170893C11.7283 0.28029 11.6668 0.428663 11.6668 0.583372V1.79554C10.7027 0.92722 9.51581 0.344445 8.2392 0.112476C6.96258 -0.119493 5.64659 0.00850421 4.4386 0.482133C3.23061 0.955762 2.17831 1.75632 1.39956 2.79416C0.620809 3.832 0.146346 5.06614 0.0293051 6.35837C0.0217704 6.43961 0.0312393 6.52152 0.0571085 6.59889C0.0829777 6.67626 0.12468 6.7474 0.179558 6.80776C0.234436 6.86813 0.301287 6.9164 0.375851 6.94951C0.450415 6.98261 0.531057 6.99982 0.612638 7.00004C0.755315 7.00186 0.893534 6.95036 1.00024 6.85563C1.10694 6.7609 1.17446 6.62976 1.18956 6.48787C1.31941 5.03581 1.98754 3.68478 3.06269 2.70019C4.13783 1.71561 5.54228 1.16863 7.00014 1.16671Z"/>
<path d="M13.3882 7.00017C13.2455 6.99835 13.1073 7.04985 13.0006 7.14458C12.8939 7.23931 12.8263 7.37045 12.8112 7.51234C12.7148 8.62256 12.302 9.68182 11.6216 10.5645C10.9413 11.4471 10.0221 12.1161 8.973 12.492C7.92392 12.8679 6.78903 12.9351 5.70295 12.6854C4.61688 12.4358 3.6252 11.8798 2.84558 11.0835H4.66675C4.82146 11.0835 4.96983 11.0221 5.07923 10.9127C5.18862 10.8033 5.25008 10.6549 5.25008 10.5002C5.25008 10.3455 5.18862 10.1971 5.07923 10.0877C4.96983 9.9783 4.82146 9.91684 4.66675 9.91684H2.25C2.10772 9.91677 1.96683 9.94473 1.83537 9.99914C1.70391 10.0536 1.58446 10.1333 1.48385 10.2339C1.38325 10.3346 1.30346 10.454 1.24905 10.5855C1.19464 10.7169 1.16667 10.8578 1.16675 11.0001V13.4169C1.16675 13.5716 1.22821 13.7199 1.3376 13.8293C1.447 13.9387 1.59537 14.0002 1.75008 14.0002C1.90479 14.0002 2.05316 13.9387 2.16256 13.8293C2.27196 13.7199 2.33342 13.5716 2.33342 13.4169V12.2047C3.29757 13.073 4.48441 13.6558 5.76102 13.8877C7.03764 14.1197 8.35363 13.9917 9.56162 13.5181C10.7696 13.0445 11.8219 12.2439 12.6007 11.2061C13.3794 10.1682 13.8539 8.93407 13.9709 7.64184C13.9785 7.5606 13.969 7.47869 13.9431 7.40132C13.9172 7.32395 13.8755 7.25281 13.8207 7.19244C13.7658 7.13208 13.6989 7.08381 13.6244 7.0507C13.5498 7.0176 13.4697 7.00039 13.3882 7.00017Z"/>
</svg>
