<svg width="14" height="8" viewBox="0 0 14 8">
<path d="M13.4867 2.78077L11.2292 0.499942C11.1749 0.445267 11.1104 0.40187 11.0393 0.372255C10.9683 0.34264 10.892 0.327393 10.815 0.327393C10.738 0.327393 10.6617 0.34264 10.5907 0.372255C10.5196 0.40187 10.4551 0.445267 10.4008 0.499942V0.499942C10.2922 0.609236 10.2312 0.757083 10.2312 0.911192C10.2312 1.0653 10.2922 1.21315 10.4008 1.32244L12.4775 3.41661H0.583333C0.428624 3.41661 0.280251 3.47807 0.170854 3.58746C0.0614582 3.69686 0 3.84523 0 3.99994H0C0 4.15465 0.0614582 4.30302 0.170854 4.41242C0.280251 4.52182 0.428624 4.58327 0.583333 4.58327H12.5125L10.4008 6.68911C10.3462 6.74334 10.3028 6.80785 10.2731 6.87894C10.2435 6.95002 10.2283 7.02627 10.2283 7.10327C10.2283 7.18028 10.2435 7.25653 10.2731 7.32761C10.3028 7.3987 10.3462 7.46321 10.4008 7.51744C10.4551 7.57212 10.5196 7.61551 10.5907 7.64513C10.6617 7.67474 10.738 7.68999 10.815 7.68999C10.892 7.68999 10.9683 7.67474 11.0393 7.64513C11.1104 7.61551 11.1749 7.57212 11.2292 7.51744L13.4867 5.25411C13.8144 4.92598 13.9985 4.48119 13.9985 4.01744C13.9985 3.55369 13.8144 3.1089 13.4867 2.78077V2.78077Z"/>
</svg>
